<svg width="52" height="52" viewBox="0 0 52 52" fill="none" xmlns="http://www.w3.org/2000/svg">
<g filter="url(#filter0_i_770_6824)">
<path d="M22.2762 0H29.7238C36.4711 0 39.8448 0 42.4219 1.31834C44.6888 2.47799 46.5318 4.32838 47.6869 6.60432C49 9.19171 49 12.5788 49 19.353V46.1833C49 50.2023 45.0342 53.0083 41.2643 51.6565L28.8804 47.2161C27.8035 46.8299 27.2651 46.6369 26.7129 46.5012C26.2224 46.3806 25.7241 46.294 25.2216 46.2419C24.6561 46.1833 24.0841 46.1833 22.94 46.1833H22.2762C15.5289 46.1833 12.1552 46.1833 9.57811 44.8649C7.31121 43.7053 5.46816 41.8549 4.31311 39.5789C3 36.9915 3 33.6044 3 26.8303V19.353C3 12.5788 3 9.19171 4.31311 6.60432C5.46816 4.32838 7.31121 2.47799 9.57811 1.31834C12.1552 0 15.5289 0 22.2762 0Z" fill="url(#paint0_linear_770_6824)"/>
</g>
<defs>
<filter id="filter0_i_770_6824" x="3" y="0" width="46" height="54" filterUnits="userSpaceOnUse" color-interpolation-filters="sRGB">
<feFlood flood-opacity="0" result="BackgroundImageFix"/>
<feBlend mode="normal" in="SourceGraphic" in2="BackgroundImageFix" result="shape"/>
<feColorMatrix in="SourceAlpha" type="matrix" values="0 0 0 0 0 0 0 0 0 0 0 0 0 0 0 0 0 0 127 0" result="hardAlpha"/>
<feOffset dy="2"/>
<feGaussianBlur stdDeviation="4"/>
<feComposite in2="hardAlpha" operator="arithmetic" k2="-1" k3="1"/>
<feColorMatrix type="matrix" values="0 0 0 0 0.137255 0 0 0 0 0.137255 0 0 0 0 0.207843 0 0 0 0.5 0"/>
<feBlend mode="normal" in2="shape" result="effect1_innerShadow_770_6824"/>
</filter>
<linearGradient id="paint0_linear_770_6824" x1="3" y1="0" x2="-3.433" y2="45.0356" gradientUnits="userSpaceOnUse">
<stop stop-color="#49A0EE"/>
<stop offset="1" stop-color="#49E1EE"/>
</linearGradient>
</defs>
</svg>
